<?xml version="1.0" encoding="UTF-8" standalone="no"?>
<!DOCTYPE svg PUBLIC "-//W3C//DTD SVG 1.1//EN"
 "http://www.w3.org/Graphics/SVG/1.1/DTD/svg11.dtd">
<!-- Generated by graphviz version 2.40.1 (20161225.0304)
 -->
<!-- Title: graphname Pages: 1 -->
<svg width="4234pt" height="755pt"
 viewBox="0.00 0.00 4234.34 755.00" xmlns="http://www.w3.org/2000/svg" xmlns:xlink="http://www.w3.org/1999/xlink">
<g id="graph0" class="graph" transform="scale(1 1) rotate(0) translate(4 751)">
<title>graphname</title>
<polygon fill="#ffffff" stroke="transparent" points="-4,4 -4,-751 4230.3362,-751 4230.3362,4 -4,4"/>
<g id="clust1" class="cluster">
<title>clusterx86</title>
<polygon fill="none" stroke="#000000" points="8,-8 8,-739 4218.3362,-739 4218.3362,-8 8,-8"/>
<text text-anchor="middle" x="2113.1681" y="-723.8" font-family="Times,serif" font-size="14.00" fill="#000000">X86&#45;64</text>
</g>
<g id="clust2" class="cluster">
<title>clusterWIN10</title>
<polygon fill="none" stroke="#000000" points="16,-16 16,-708 4210.3362,-708 4210.3362,-16 16,-16"/>
<text text-anchor="middle" x="2113.1681" y="-692.8" font-family="Times,serif" font-size="14.00" fill="#000000">Windows10</text>
</g>
<g id="clust3" class="cluster">
<title>clusterJVM</title>
<polygon fill="none" stroke="#0000ff" points="24,-430 24,-677 1137.3304,-677 1137.3304,-430 24,-430"/>
<text text-anchor="middle" x="580.6652" y="-661.8" font-family="Times,serif" font-size="14.00" fill="#000000">JVM</text>
</g>
<g id="clust4" class="cluster">
<title>clusterCSS</title>
<polygon fill="none" stroke="#ff0000" points="32,-484 32,-646 1129.3304,-646 1129.3304,-484 32,-484"/>
<text text-anchor="middle" x="580.6652" y="-630.8" font-family="Times,serif" font-size="14.00" fill="#000000">CodeComposerStudio</text>
</g>
<g id="clust5" class="cluster">
<title>clusterSDK</title>
<polygon fill="none" stroke="#ff0000" points="1320.3304,-206 1320.3304,-443 4202.3362,-443 4202.3362,-206 1320.3304,-206"/>
<text text-anchor="middle" x="2761.3333" y="-427.8" font-family="Times,serif" font-size="14.00" fill="#000000">SDK</text>
</g>
<g id="clust6" class="cluster">
<title>clusterSysConfigCli</title>
<polygon fill="none" stroke="#ff0000" points="2016.0531,-283 2016.0531,-412 2128.4452,-412 2128.4452,-283 2016.0531,-283"/>
<text text-anchor="middle" x="2072.2491" y="-396.8" font-family="Times,serif" font-size="14.00" fill="#000000">sysconfig_cli.bat</text>
</g>
<!-- WIN10 -->
<!-- XDCTools -->
<g id="node2" class="node">
<title>XDCTools</title>
<ellipse fill="none" stroke="#000000" cx="2072.2491" cy="-469" rx="51.9908" ry="18"/>
<text text-anchor="middle" x="2072.2491" y="-465.3" font-family="Times,serif" font-size="14.00" fill="#000000">XDCTools</text>
</g>
<!-- JVM -->
<!-- CCS -->
<!-- SysConfigCli -->
<!-- CCS&#45;&gt;SysConfigCli -->
<g id="edge2" class="edge">
<title>CCS&#45;&gt;SysConfigCli</title>
<path fill="none" stroke="#a020f0" d="M119.8909,-506.0768C131.2462,-503.0295 143.5346,-497.6162 151.1401,-488 191.8607,-436.5147 122.9979,-195 188.6401,-195 188.6401,-195 188.6401,-195 1955.3057,-195 2020.8868,-195 1953.6789,-288.4136 1998.8057,-336 2008.4895,-346.2116 2022.3624,-352.58 2035.4484,-356.5434"/>
<polygon fill="#a020f0" stroke="#a020f0" points="2034.6569,-359.9544 2045.2196,-359.1293 2036.4478,-353.1874 2034.6569,-359.9544"/>
<text text-anchor="middle" x="913.1401" y="-198.8" font-family="Times,serif" font-size="14.00" fill="#000000">*.syscfg</text>
</g>
<!-- dslite -->
<g id="node20" class="node">
<title>dslite</title>
<ellipse fill="#d3d3d3" stroke="#000000" cx="4142.3408" cy="-246" rx="44.393" ry="18"/>
<text text-anchor="middle" x="4142.3408" y="-242.3" font-family="Times,serif" font-size="14.00" fill="#000000">dslite.bat</text>
</g>
<!-- CCS&#45;&gt;dslite -->
<g id="edge31" class="edge">
<title>CCS&#45;&gt;dslite</title>
<path fill="none" stroke="#000000" d="M119.8818,-506.3806C131.3794,-503.3936 143.7838,-497.9434 151.1401,-488 197.0064,-426.0039 111.5219,-143 188.6401,-143 188.6401,-143 188.6401,-143 4052.8454,-143 4093.0318,-143 4119.2574,-188.229 4132.3782,-218.7442"/>
<polygon fill="#000000" stroke="#000000" points="4129.1602,-220.1221 4136.1788,-228.0588 4135.6414,-217.4776 4129.1602,-220.1221"/>
<text text-anchor="middle" x="2249.6926" y="-146.8" font-family="Times,serif" font-size="14.00" fill="#000000">*.ccxml</text>
</g>
<!-- Eclipse -->
<g id="node5" class="node">
<title>Eclipse</title>
<ellipse fill="#d3d3d3" stroke="#000000" cx="92.6453" cy="-564" rx="52.7911" ry="18"/>
<text text-anchor="middle" x="92.6453" y="-560.3" font-family="Times,serif" font-size="14.00" fill="#000000">Eclipse.exe</text>
</g>
<!-- Eclipse&#45;&gt;Eclipse -->
<g id="edge24" class="edge">
<title>Eclipse&#45;&gt;Eclipse</title>
<path fill="none" stroke="#000000" d="M79.0772,-581.4099C76.5445,-591.0879 81.0672,-600 92.6453,-600 99.8817,-600 104.362,-596.5187 106.0862,-591.5449"/>
<polygon fill="#000000" stroke="#000000" points="109.5876,-591.4531 106.2134,-581.4099 102.5881,-591.3652 109.5876,-591.4531"/>
<text text-anchor="middle" x="92.6453" y="-603.8" font-family="Times,serif" font-size="14.00" fill="#000000">.cproject</text>
</g>
<!-- eclipsec -->
<g id="node6" class="node">
<title>eclipsec</title>
<ellipse fill="#d3d3d3" stroke="#000000" cx="1066.7353" cy="-510" rx="54.6905" ry="18"/>
<text text-anchor="middle" x="1066.7353" y="-506.3" font-family="Times,serif" font-size="14.00" fill="#000000">eclipsec.exe</text>
</g>
<!-- Eclipse&#45;&gt;eclipsec -->
<g id="edge12" class="edge">
<title>Eclipse&#45;&gt;eclipsec</title>
<path fill="none" stroke="#000000" d="M126.0015,-549.9425C134.3702,-546.054 143.2186,-541.6226 151.1401,-537 168.8781,-526.6491 168.1029,-510 188.6401,-510 188.6401,-510 188.6401,-510 974.6401,-510 983.3528,-510 992.529,-510 1001.5768,-510"/>
<polygon fill="#000000" stroke="#000000" points="1001.7058,-513.5001 1011.7058,-510 1001.7058,-506.5001 1001.7058,-513.5001"/>
<text text-anchor="middle" x="534.1401" y="-513.8" font-family="Times,serif" font-size="14.00" fill="#000000">.cproject .ccsproject .project</text>
</g>
<!-- Notepadpp -->
<g id="node9" class="node">
<title>Notepadpp</title>
<ellipse fill="none" stroke="#000000" cx="1726.5617" cy="-520" rx="68.4888" ry="18"/>
<text text-anchor="middle" x="1726.5617" y="-516.3" font-family="Times,serif" font-size="14.00" fill="#000000">Notepad++.exe</text>
</g>
<!-- Eclipse&#45;&gt;Notepadpp -->
<g id="edge23" class="edge">
<title>Eclipse&#45;&gt;Notepadpp</title>
<path fill="none" stroke="#000000" d="M131.9619,-575.9805C149.1869,-580.2399 169.7439,-584 188.6401,-584 188.6401,-584 188.6401,-584 1620.8178,-584 1652.4546,-584 1682.7231,-562.7739 1702.7067,-544.7698"/>
<polygon fill="#000000" stroke="#000000" points="1705.2059,-547.2242 1710.1002,-537.8276 1700.4143,-542.1212 1705.2059,-547.2242"/>
<text text-anchor="middle" x="789.6401" y="-587.8" font-family="Times,serif" font-size="14.00" fill="#000000">.cproject</text>
</g>
<!-- Linker -->
<g id="node22" class="node">
<title>Linker</title>
<ellipse fill="#d3d3d3" stroke="#000000" cx="3145.12" cy="-365" rx="46.2923" ry="18"/>
<text text-anchor="middle" x="3145.12" y="-361.3" font-family="Times,serif" font-size="14.00" fill="#000000">armcl.exe</text>
</g>
<!-- Eclipse&#45;&gt;Linker -->
<g id="edge17" class="edge">
<title>Eclipse&#45;&gt;Linker</title>
<path fill="none" stroke="#000000" d="M100.3159,-581.9747C113.7394,-610.2665 144.3417,-662 188.6401,-662 188.6401,-662 188.6401,-662 1527.8178,-662 1671.7247,-662 1707.3987,-676 1851.3057,-676 1851.3057,-676 1851.3057,-676 3061.474,-676 3070.4211,-676 3074.7894,-677.4653 3080.974,-671 3119.1715,-631.069 3137.1856,-461.0897 3142.9591,-393.1868"/>
<polygon fill="#000000" stroke="#000000" points="3146.4489,-393.4545 3143.7819,-383.2008 3139.4725,-392.8796 3146.4489,-393.4545"/>
<text text-anchor="middle" x="1564.8178" y="-665.8" font-family="Times,serif" font-size="14.00" fill="#000000">*.cmd</text>
</g>
<!-- gmake -->
<g id="node23" class="node">
<title>gmake</title>
<ellipse fill="#d3d3d3" stroke="#000000" cx="1399.8241" cy="-286" rx="50.8918" ry="18"/>
<text text-anchor="middle" x="1399.8241" y="-282.3" font-family="Times,serif" font-size="14.00" fill="#000000">gmake.exe</text>
</g>
<!-- eclipsec&#45;&gt;gmake -->
<g id="edge34" class="edge">
<title>eclipsec&#45;&gt;gmake</title>
<path fill="none" stroke="#000000" d="M1073.6377,-492.0185C1086.5573,-461.7763 1117.4409,-404 1164.8304,-404 1164.8304,-404 1164.8304,-404 1290.8304,-404 1333.347,-404 1290.477,-343.2725 1320.3304,-313 1326.9443,-306.2933 1335.2848,-301.2521 1344.0587,-297.4629"/>
<polygon fill="#000000" stroke="#000000" points="1345.5717,-300.6327 1353.6883,-293.823 1343.0967,-294.0849 1345.5717,-300.6327"/>
<text text-anchor="middle" x="1227.8304" y="-407.8" font-family="Times,serif" font-size="14.00" fill="#000000">*.mk</text>
</g>
<!-- eclipsec&#45;&gt;gmake -->
<g id="edge35" class="edge">
<title>eclipsec&#45;&gt;gmake</title>
<path fill="none" stroke="#000000" d="M1071.4495,-491.8986C1084.799,-442.6668 1124.5129,-310 1164.8304,-310 1164.8304,-310 1164.8304,-310 1290.8304,-310 1311.3605,-310 1333.5676,-305.8886 1352.5464,-301.0691"/>
<polygon fill="#000000" stroke="#000000" points="1353.6829,-304.3883 1362.438,-298.4218 1351.8731,-297.6262 1353.6829,-304.3883"/>
<text text-anchor="middle" x="1227.8304" y="-313.8" font-family="Times,serif" font-size="14.00" fill="#000000">Makefile</text>
</g>
<!-- GIT -->
<g id="node7" class="node">
<title>GIT</title>
<ellipse fill="none" stroke="#000000" cx="92.6453" cy="-150" rx="35.9954" ry="18"/>
<text text-anchor="middle" x="92.6453" y="-146.3" font-family="Times,serif" font-size="14.00" fill="#000000">git.exe</text>
</g>
<!-- GIT&#45;&gt;GIT -->
<g id="edge5" class="edge">
<title>GIT&#45;&gt;GIT</title>
<path fill="none" stroke="#000000" d="M90.3538,-168.1527C90.0013,-177.5391 90.7651,-186 92.6453,-186 93.7911,-186 94.5223,-182.8581 94.8389,-178.2796"/>
<polygon fill="#000000" stroke="#000000" points="98.3399,-178.1861 94.9368,-168.1527 91.3402,-178.1184 98.3399,-178.1861"/>
<text text-anchor="middle" x="92.6453" y="-189.8" font-family="Times,serif" font-size="14.00" fill="#000000">.ccsproject</text>
</g>
<!-- GIT&#45;&gt;GIT -->
<g id="edge6" class="edge">
<title>GIT&#45;&gt;GIT</title>
<path fill="none" stroke="#000000" d="M88.8373,-167.9782C86.7992,-185.1996 88.0685,-204 92.6453,-204 96.3282,-204 97.8695,-191.8264 97.2691,-178.0978"/>
<polygon fill="#000000" stroke="#000000" points="100.7456,-177.6647 96.4534,-167.9782 93.7683,-178.2271 100.7456,-177.6647"/>
<text text-anchor="middle" x="92.6453" y="-207.8" font-family="Times,serif" font-size="14.00" fill="#000000">*.c</text>
</g>
<!-- GIT&#45;&gt;GIT -->
<g id="edge8" class="edge">
<title>GIT&#45;&gt;GIT</title>
<path fill="none" stroke="#000000" d="M87.8378,-168.0781C83.5838,-192.4094 85.1863,-222 92.6453,-222 99.0845,-222 101.1592,-199.9475 98.8693,-178.2636"/>
<polygon fill="#000000" stroke="#000000" points="102.2969,-177.5007 97.4529,-168.0781 95.3636,-178.4649 102.2969,-177.5007"/>
<text text-anchor="middle" x="92.6453" y="-225.8" font-family="Times,serif" font-size="14.00" fill="#000000">*.h</text>
</g>
<!-- GIT&#45;&gt;GIT -->
<g id="edge9" class="edge">
<title>GIT&#45;&gt;GIT</title>
<path fill="none" stroke="#000000" d="M87.1398,-168.1124C80.3701,-199.2398 82.2052,-240 92.6453,-240 101.9843,-240 104.4378,-207.3843 100.0057,-178.2236"/>
<polygon fill="#000000" stroke="#000000" points="103.3978,-177.3167 98.1509,-168.1124 96.5127,-178.5798 103.3978,-177.3167"/>
<text text-anchor="middle" x="92.6453" y="-243.8" font-family="Times,serif" font-size="14.00" fill="#000000">*.cmd</text>
</g>
<!-- GIT&#45;&gt;GIT -->
<g id="edge10" class="edge">
<title>GIT&#45;&gt;GIT</title>
<path fill="none" stroke="#000000" d="M86.7066,-167.7983C77.1517,-205.5488 79.1313,-258 92.6453,-258 104.998,-258 107.7135,-214.1765 100.7919,-177.8139"/>
<polygon fill="#000000" stroke="#000000" points="104.1548,-176.8104 98.5841,-167.7983 97.3189,-178.3173 104.1548,-176.8104"/>
<text text-anchor="middle" x="92.6453" y="-261.8" font-family="Times,serif" font-size="14.00" fill="#000000">.cproject</text>
</g>
<!-- GIT&#45;&gt;GIT -->
<g id="edge11" class="edge">
<title>GIT&#45;&gt;GIT</title>
<path fill="none" stroke="#000000" d="M86.3277,-167.769C73.9516,-211.9743 76.0574,-276 92.6453,-276 108.0345,-276 110.9591,-220.8936 101.4192,-177.6315"/>
<polygon fill="#000000" stroke="#000000" points="104.776,-176.6268 98.963,-167.769 97.9835,-178.3185 104.776,-176.6268"/>
<text text-anchor="middle" x="92.6453" y="-279.8" font-family="Times,serif" font-size="14.00" fill="#000000">.project</text>
</g>
<!-- clangformat -->
<g id="node8" class="node">
<title>clangformat</title>
<ellipse fill="none" stroke="#000000" cx="2072.2491" cy="-544" rx="73.387" ry="18"/>
<text text-anchor="middle" x="2072.2491" y="-540.3" font-family="Times,serif" font-size="14.00" fill="#000000">clang&#45;format.exe</text>
</g>
<!-- clangformat&#45;&gt;Notepadpp -->
<g id="edge27" class="edge">
<title>clangformat&#45;&gt;Notepadpp</title>
<path fill="none" stroke="#000000" d="M2029.7468,-558.6852C2007.7953,-565.0178 1980.414,-571 1955.3057,-571 1832.3057,-571 1832.3057,-571 1832.3057,-571 1804.6085,-571 1776.5201,-556.6296 1756.2602,-543.145"/>
<polygon fill="#000000" stroke="#000000" points="1758.015,-540.1023 1747.8068,-537.2663 1754.0184,-545.8492 1758.015,-540.1023"/>
<text text-anchor="middle" x="1893.8057" y="-574.8" font-family="Times,serif" font-size="14.00" fill="#000000">*.c *.h</text>
</g>
<!-- Notepadpp&#45;&gt;XDCTools -->
<g id="edge7" class="edge">
<title>Notepadpp&#45;&gt;XDCTools</title>
<path fill="none" stroke="#000000" d="M1747.8068,-502.7337C1768.1984,-487.9382 1800.5098,-469 1832.3057,-469 1832.3057,-469 1832.3057,-469 1955.3057,-469 1973.0412,-469 1992.2897,-469 2009.9535,-469"/>
<polygon fill="#000000" stroke="#000000" points="2010.1471,-472.5001 2020.1471,-469 2010.1471,-465.5001 2010.1471,-472.5001"/>
<text text-anchor="middle" x="1893.8057" y="-472.8" font-family="Times,serif" font-size="14.00" fill="#000000">*.xscfg</text>
</g>
<!-- Notepadpp&#45;&gt;clangformat -->
<g id="edge26" class="edge">
<title>Notepadpp&#45;&gt;clangformat</title>
<path fill="none" stroke="#000000" d="M1794.8214,-520C1807.2917,-520 1820.1892,-520 1832.3057,-520 1832.3057,-520 1832.3057,-520 1955.3057,-520 1975.3377,-520 1996.913,-523.421 2016.0109,-527.6799"/>
<polygon fill="#000000" stroke="#000000" points="2015.2151,-531.0881 2025.7507,-529.9697 2016.8172,-524.2739 2015.2151,-531.0881"/>
<text text-anchor="middle" x="1893.8057" y="-523.8" font-family="Times,serif" font-size="14.00" fill="#000000">*.c *.h</text>
</g>
<!-- Notepadpp&#45;&gt;Notepadpp -->
<g id="edge25" class="edge">
<title>Notepadpp&#45;&gt;Notepadpp</title>
<path fill="none" stroke="#000000" d="M1711.102,-537.7817C1708.4749,-547.3149 1713.6281,-556 1726.5617,-556 1734.4431,-556 1739.4354,-552.7749 1741.5385,-548.0981"/>
<polygon fill="#000000" stroke="#000000" points="1745.0499,-547.9345 1742.0214,-537.7817 1738.0576,-547.6071 1745.0499,-547.9345"/>
<text text-anchor="middle" x="1726.5617" y="-559.8" font-family="Times,serif" font-size="14.00" fill="#000000">*.c *.h</text>
</g>
<!-- dot -->
<g id="node14" class="node">
<title>dot</title>
<ellipse fill="none" stroke="#000000" cx="2072.2491" cy="-619" rx="38.1938" ry="18"/>
<text text-anchor="middle" x="2072.2491" y="-615.3" font-family="Times,serif" font-size="14.00" fill="#000000">dot.exe</text>
</g>
<!-- Notepadpp&#45;&gt;dot -->
<g id="edge28" class="edge">
<title>Notepadpp&#45;&gt;dot</title>
<path fill="none" stroke="#000000" d="M1735.0712,-538.2356C1750.1699,-567.5744 1784.6073,-622 1832.3057,-622 1832.3057,-622 1832.3057,-622 1955.3057,-622 1977.7181,-622 2002.5389,-621.4425 2023.5267,-620.8082"/>
<polygon fill="#000000" stroke="#000000" points="2023.922,-624.2975 2033.8061,-620.4824 2023.7002,-617.301 2023.922,-624.2975"/>
<text text-anchor="middle" x="1893.8057" y="-625.8" font-family="Times,serif" font-size="14.00" fill="#000000">*.dot</text>
</g>
<!-- Notepadpp&#45;&gt;SysConfigCli -->
<g id="edge1" class="edge">
<title>Notepadpp&#45;&gt;SysConfigCli</title>
<path fill="none" stroke="#a020f0" d="M1730.1201,-501.8481C1739.2303,-461.32 1767.4043,-367 1832.3057,-367 1832.3057,-367 1832.3057,-367 1955.3057,-367 1981.9066,-367 2011.8913,-365.9535 2034.8384,-364.931"/>
<polygon fill="#a020f0" stroke="#a020f0" points="2035.0218,-368.4263 2044.8489,-364.4667 2034.6975,-361.4338 2035.0218,-368.4263"/>
<text text-anchor="middle" x="1893.8057" y="-370.8" font-family="Times,serif" font-size="14.00" fill="#000000">*.syscfg</text>
</g>
<!-- Notepadpp&#45;&gt;Linker -->
<g id="edge18" class="edge">
<title>Notepadpp&#45;&gt;Linker</title>
<path fill="none" stroke="#000000" d="M1731.35,-538.0597C1742.3717,-575.0544 1773.2366,-656 1832.3057,-656 1832.3057,-656 1832.3057,-656 2329.1926,-656 2447.5739,-656 2476.801,-642 2595.1822,-642 2595.1822,-642 2595.1822,-642 3061.474,-642 3113.0788,-642 3135.728,-463.5875 3142.6603,-393.1328"/>
<polygon fill="#000000" stroke="#000000" points="3146.1448,-393.4607 3143.6054,-383.1747 3139.1761,-392.7993 3146.1448,-393.4607"/>
<text text-anchor="middle" x="2558.1822" y="-646.8" font-family="Times,serif" font-size="14.00" fill="#000000">*.cmd</text>
</g>
<!-- Preprocessor -->
<g id="node26" class="node">
<title>Preprocessor</title>
<ellipse fill="#d3d3d3" stroke="#000000" cx="2072.2491" cy="-255" rx="46.2923" ry="18"/>
<text text-anchor="middle" x="2072.2491" y="-251.3" font-family="Times,serif" font-size="14.00" fill="#000000">armcl.exe</text>
</g>
<!-- Notepadpp&#45;&gt;Preprocessor -->
<g id="edge16" class="edge">
<title>Notepadpp&#45;&gt;Preprocessor</title>
<path fill="none" stroke="#000000" d="M1733.107,-501.8502C1745.0174,-470.8022 1772.7561,-406.8065 1812.8057,-365 1868.9969,-306.3436 1961.431,-277.5023 2019.461,-264.4749"/>
<polygon fill="#000000" stroke="#000000" points="2020.4929,-267.8327 2029.5262,-262.2964 2019.0121,-260.9911 2020.4929,-267.8327"/>
<text text-anchor="middle" x="1893.8057" y="-323.8" font-family="Times,serif" font-size="14.00" fill="#000000">*.c/*.h</text>
</g>
<!-- chrome -->
<g id="node10" class="node">
<title>chrome</title>
<ellipse fill="none" stroke="#000000" cx="2406.1874" cy="-565" rx="53.8905" ry="18"/>
<text text-anchor="middle" x="2406.1874" y="-561.3" font-family="Times,serif" font-size="14.00" fill="#000000">chrome.exe</text>
</g>
<!-- Inkscape -->
<g id="node11" class="node">
<title>Inkscape</title>
<ellipse fill="none" stroke="#000000" cx="2406.1874" cy="-619" rx="58.4896" ry="18"/>
<text text-anchor="middle" x="2406.1874" y="-615.3" font-family="Times,serif" font-size="14.00" fill="#000000">Inkscape.exe</text>
</g>
<!-- Teraterm -->
<g id="node12" class="node">
<title>Teraterm</title>
<ellipse fill="none" stroke="#000000" cx="92.6453" cy="-96" rx="58.4896" ry="18"/>
<text text-anchor="middle" x="92.6453" y="-92.3" font-family="Times,serif" font-size="14.00" fill="#000000">Teraterm.exe</text>
</g>
<!-- putty -->
<g id="node13" class="node">
<title>putty</title>
<ellipse fill="none" stroke="#000000" cx="92.6453" cy="-42" rx="53.8905" ry="18"/>
<text text-anchor="middle" x="92.6453" y="-38.3" font-family="Times,serif" font-size="14.00" fill="#000000">PuTTY.exe</text>
</g>
<!-- dot&#45;&gt;chrome -->
<g id="edge33" class="edge">
<title>dot&#45;&gt;chrome</title>
<path fill="none" stroke="#000000" d="M2092.5849,-603.6795C2115.0079,-588.3408 2152.7529,-567 2189.1926,-567 2189.1926,-567 2189.1926,-567 2310.1926,-567 2320.5511,-567 2331.5369,-566.8822 2342.2352,-566.7037"/>
<polygon fill="#000000" stroke="#000000" points="2342.4409,-570.2006 2352.3743,-566.5159 2342.3112,-563.2018 2342.4409,-570.2006"/>
<text text-anchor="middle" x="2249.6926" y="-570.8" font-family="Times,serif" font-size="14.00" fill="#000000">*.svg</text>
</g>
<!-- dot&#45;&gt;Inkscape -->
<g id="edge36" class="edge">
<title>dot&#45;&gt;Inkscape</title>
<path fill="none" stroke="#000000" d="M2110.6985,-619C2133.5123,-619 2163.0022,-619 2189.1926,-619 2189.1926,-619 2189.1926,-619 2310.1926,-619 2318.9714,-619 2328.2019,-619 2337.3263,-619"/>
<polygon fill="#000000" stroke="#000000" points="2337.5535,-622.5001 2347.5534,-619 2337.5534,-615.5001 2337.5535,-622.5001"/>
<text text-anchor="middle" x="2249.6926" y="-622.8" font-family="Times,serif" font-size="14.00" fill="#000000">*.svg</text>
</g>
<!-- SDK -->
<!-- SDK&#45;&gt;Linker -->
<g id="edge20" class="edge">
<title>SDK&#45;&gt;Linker</title>
<path fill="none" stroke="#000000" d="M2724.9032,-390.582C2741.2556,-388.8051 2762.5296,-387 2781.474,-387 2781.474,-387 2781.474,-387 3061.474,-387 3075.1149,-387 3089.6077,-384.2297 3102.6301,-380.6551"/>
<polygon fill="#000000" stroke="#000000" points="3103.6716,-383.997 3112.2632,-377.7975 3101.6808,-377.2861 3103.6716,-383.997"/>
<text text-anchor="middle" x="2936.474" y="-390.8" font-family="Times,serif" font-size="14.00" fill="#000000">*.a</text>
</g>
<!-- dbgjtag -->
<g id="node16" class="node">
<title>dbgjtag</title>
<ellipse fill="#d3d3d3" stroke="#000000" cx="1399.8241" cy="-394" rx="38.9931" ry="18"/>
<text text-anchor="middle" x="1399.8241" y="-390.3" font-family="Times,serif" font-size="14.00" fill="#000000">dbgjtag</text>
</g>
<!-- oad_image_tool -->
<g id="node17" class="node">
<title>oad_image_tool</title>
<ellipse fill="#d3d3d3" stroke="#000000" cx="1399.8241" cy="-340" rx="71.4873" ry="18"/>
<text text-anchor="middle" x="1399.8241" y="-336.3" font-family="Times,serif" font-size="14.00" fill="#000000">oad_image_tool</text>
</g>
<!-- SysConfigCli&#45;&gt;Eclipse -->
<g id="edge4" class="edge">
<title>SysConfigCli&#45;&gt;Eclipse</title>
<path fill="none" stroke="#000000" d="M2045.1917,-356.6372C2030.5883,-352.3538 2012.7511,-345.6894 1998.8057,-336 1985.3454,-326.6478 1986.8139,-319.1554 1974.8057,-308 1967.1208,-300.8609 1964.9252,-299.1825 1955.8057,-294 1915.0122,-270.8176 1898.2261,-279 1851.3057,-279 1564.8178,-279 1564.8178,-279 1564.8178,-279 1539.5655,-279 1527.2837,-268.3275 1508.3178,-285 1495.0195,-296.6902 1484.8453,-428.5758 1471.3178,-440 1458.4725,-450.8481 1337.0858,-448.6078 1320.3304,-450 1266.0608,-454.5094 1249.8336,-456.3733 1202.3304,-483 1169.5686,-501.3638 1172.1899,-523.022 1137.3304,-537 1077.9125,-560.8255 1057.657,-547 993.6401,-547 188.6401,-547 188.6401,-547 188.6401,-547 174.3398,-547 159.0221,-548.8518 144.9165,-551.3331"/>
<polygon fill="#000000" stroke="#000000" points="144.0646,-547.9322 134.8915,-553.2336 145.3685,-554.8097 144.0646,-547.9322"/>
<text text-anchor="middle" x="913.1401" y="-550.8" font-family="Times,serif" font-size="14.00" fill="#000000">*.c/*.h</text>
</g>
<!-- SysConfigCli&#45;&gt;Notepadpp -->
<g id="edge3" class="edge">
<title>SysConfigCli&#45;&gt;Notepadpp</title>
<path fill="none" stroke="#000000" d="M2045.1961,-368.6401C2030.9267,-372.2168 2013.402,-377.5852 1998.8057,-385 1977.1702,-395.9906 1979.5727,-418 1955.3057,-418 1832.3057,-418 1832.3057,-418 1832.3057,-418 1789.0791,-418 1756.7435,-462.6992 1739.8226,-492.9169"/>
<polygon fill="#000000" stroke="#000000" points="1736.719,-491.2985 1735.0712,-501.7644 1742.886,-494.6104 1736.719,-491.2985"/>
<text text-anchor="middle" x="1893.8057" y="-421.8" font-family="Times,serif" font-size="14.00" fill="#000000">*.c/*.h</text>
</g>
<!-- compiler -->
<g id="node21" class="node">
<title>compiler</title>
<ellipse fill="#d3d3d3" stroke="#000000" cx="2697.8281" cy="-289" rx="46.2923" ry="18"/>
<text text-anchor="middle" x="2697.8281" y="-285.3" font-family="Times,serif" font-size="14.00" fill="#000000">armcl.exe</text>
</g>
<!-- SysConfigCli&#45;&gt;compiler -->
<g id="edge14" class="edge">
<title>SysConfigCli&#45;&gt;compiler</title>
<path fill="none" stroke="#000000" d="M2099.3569,-354.625C2113.482,-349.8675 2130.8573,-343.3891 2145.6926,-336 2166.2733,-325.7493 2166.2004,-308 2189.1926,-308 2189.1926,-308 2189.1926,-308 2614.1822,-308 2626.7472,-308 2640.116,-305.936 2652.3938,-303.1686"/>
<polygon fill="#000000" stroke="#000000" points="2653.5327,-306.493 2662.409,-300.7084 2651.8628,-299.6951 2653.5327,-306.493"/>
<text text-anchor="middle" x="2406.1874" y="-311.8" font-family="Times,serif" font-size="14.00" fill="#000000">*.opt</text>
</g>
<!-- SysConfigCli&#45;&gt;Linker -->
<g id="edge15" class="edge">
<title>SysConfigCli&#45;&gt;Linker</title>
<path fill="none" stroke="#000000" d="M2099.4338,-355.6663C2122.9927,-349.9583 2158.0904,-343 2189.1926,-343 2189.1926,-343 2189.1926,-343 3061.474,-343 3075.1149,-343 3089.6077,-345.7703 3102.6301,-349.3449"/>
<polygon fill="#000000" stroke="#000000" points="3101.6808,-352.7139 3112.2632,-352.2025 3103.6716,-346.003 3101.6808,-352.7139"/>
<text text-anchor="middle" x="2697.8281" y="-346.8" font-family="Times,serif" font-size="14.00" fill="#000000">*.cmd.genlibs</text>
</g>
<!-- node_exe -->
<g id="node19" class="node">
<title>node_exe</title>
<ellipse fill="#d3d3d3" stroke="#000000" cx="2072.2491" cy="-309" rx="44.393" ry="18"/>
<text text-anchor="middle" x="2072.2491" y="-305.3" font-family="Times,serif" font-size="14.00" fill="#000000">node.exe</text>
</g>
<!-- compiler&#45;&gt;Linker -->
<g id="edge19" class="edge">
<title>compiler&#45;&gt;Linker</title>
<path fill="none" stroke="#000000" d="M2740.6937,-296.1076C2753.7486,-297.7364 2768.1651,-299 2781.474,-299 2781.474,-299 2781.474,-299 3061.474,-299 3087.1684,-299 3078.5961,-327.3495 3098.974,-343 3100.5578,-344.2163 3102.2196,-345.3888 3103.9336,-346.5158"/>
<polygon fill="#000000" stroke="#000000" points="3102.4272,-349.6909 3112.8174,-351.763 3105.9872,-343.6637 3102.4272,-349.6909"/>
<text text-anchor="middle" x="2936.474" y="-302.8" font-family="Times,serif" font-size="14.00" fill="#000000">.obj</text>
</g>
<!-- armhex -->
<g id="node25" class="node">
<title>armhex</title>
<ellipse fill="#d3d3d3" stroke="#000000" cx="3584.7607" cy="-259" rx="53.8905" ry="18"/>
<text text-anchor="middle" x="3584.7607" y="-255.3" font-family="Times,serif" font-size="14.00" fill="#000000">armhex.exe</text>
</g>
<!-- Linker&#45;&gt;armhex -->
<g id="edge29" class="edge">
<title>Linker&#45;&gt;armhex</title>
<path fill="none" stroke="#000000" d="M3177.4542,-351.804C3182.2916,-349.211 3187.0605,-346.2669 3191.2659,-343 3211.8252,-327.0284 3202.7317,-298 3228.7659,-298 3228.7659,-298 3228.7659,-298 3488.7659,-298 3510.6713,-298 3533.4575,-289.1755 3551.3301,-279.9217"/>
<polygon fill="#000000" stroke="#000000" points="3553.0926,-282.9473 3560.1977,-275.088 3549.7423,-276.8011 3553.0926,-282.9473"/>
<text text-anchor="middle" x="3358.7659" y="-301.8" font-family="Times,serif" font-size="14.00" fill="#000000">*.hex</text>
</g>
<!-- tiobj2bin -->
<g id="node27" class="node">
<title>tiobj2bin</title>
<ellipse fill="#d3d3d3" stroke="#000000" cx="3584.7607" cy="-365" rx="58.4896" ry="18"/>
<text text-anchor="middle" x="3584.7607" y="-361.3" font-family="Times,serif" font-size="14.00" fill="#000000">tiobj2bin.bat</text>
</g>
<!-- Linker&#45;&gt;tiobj2bin -->
<g id="edge37" class="edge">
<title>Linker&#45;&gt;tiobj2bin</title>
<path fill="none" stroke="#000000" d="M3191.576,-365C3203.6826,-365 3216.7127,-365 3228.7659,-365 3228.7659,-365 3228.7659,-365 3488.7659,-365 3497.5447,-365 3506.7751,-365 3515.8996,-365"/>
<polygon fill="#000000" stroke="#000000" points="3516.1267,-368.5001 3526.1267,-365 3516.1266,-361.5001 3516.1267,-368.5001"/>
<text text-anchor="middle" x="3358.7659" y="-368.8" font-family="Times,serif" font-size="14.00" fill="#000000">*.out</text>
</g>
<!-- gmake&#45;&gt;Preprocessor -->
<g id="edge21" class="edge">
<title>gmake&#45;&gt;Preprocessor</title>
<path fill="none" stroke="#000000" d="M1434.0996,-272.4921C1455.2836,-265.332 1483.2244,-258 1508.8178,-258 1508.8178,-258 1508.8178,-258 1955.3057,-258 1975.1033,-258 1996.7801,-257.565 2016.0343,-257.0263"/>
<polygon fill="#000000" stroke="#000000" points="2016.2634,-260.5212 2026.1558,-256.7277 2016.0569,-253.5242 2016.2634,-260.5212"/>
</g>
<!-- srfprog -->
<g id="node24" class="node">
<title>srfprog</title>
<ellipse fill="#d3d3d3" stroke="#000000" cx="1399.8241" cy="-232" rx="52.7911" ry="18"/>
<text text-anchor="middle" x="1399.8241" y="-228.3" font-family="Times,serif" font-size="14.00" fill="#000000">srfprog.exe</text>
</g>
<!-- armhex&#45;&gt;dslite -->
<g id="edge30" class="edge">
<title>armhex&#45;&gt;dslite</title>
<path fill="none" stroke="#000000" d="M3638.8295,-259C3652.5092,-259 3667.1729,-259 3680.7555,-259 3680.7555,-259 3680.7555,-259 4052.8454,-259 4065.8535,-259 4079.8157,-257.6384 4092.7519,-255.7964"/>
<polygon fill="#000000" stroke="#000000" points="4093.5205,-259.2193 4102.8687,-254.2331 4092.4515,-252.3014 4093.5205,-259.2193"/>
<text text-anchor="middle" x="3882.8005" y="-262.8" font-family="Times,serif" font-size="14.00" fill="#000000">*.hex</text>
</g>
<!-- hex2bin -->
<g id="node29" class="node">
<title>hex2bin</title>
<ellipse fill="none" stroke="#000000" cx="3882.8005" cy="-180" rx="56.59" ry="18"/>
<text text-anchor="middle" x="3882.8005" y="-176.3" font-family="Times,serif" font-size="14.00" fill="#000000">hex2bin.exe</text>
</g>
<!-- armhex&#45;&gt;hex2bin -->
<g id="edge22" class="edge">
<title>armhex&#45;&gt;hex2bin</title>
<path fill="none" stroke="#000000" d="M3620.9131,-245.5623C3646.7597,-236.0587 3677.5288,-225 3680.7555,-225 3680.7555,-225 3680.7555,-225 3788.7555,-225 3808.3072,-225 3808.7413,-210.6906 3826.2555,-202 3829.3693,-200.4549 3832.62,-198.9426 3835.9204,-197.4802"/>
<polygon fill="#000000" stroke="#000000" points="3837.4445,-200.6356 3845.2814,-193.5058 3834.7088,-194.1923 3837.4445,-200.6356"/>
<text text-anchor="middle" x="3734.7555" y="-228.8" font-family="Times,serif" font-size="14.00" fill="#000000">*.hex</text>
</g>
<!-- Preprocessor&#45;&gt;compiler -->
<g id="edge13" class="edge">
<title>Preprocessor&#45;&gt;compiler</title>
<path fill="none" stroke="#000000" d="M2118.6297,-255.5788C2140.0992,-255.8 2165.9452,-256 2189.1926,-256 2189.1926,-256 2189.1926,-256 2614.1822,-256 2623.4026,-256 2641.9233,-263.0262 2659.1983,-270.5944"/>
<polygon fill="#000000" stroke="#000000" points="2658.044,-273.9126 2668.6005,-274.8135 2660.9099,-267.5261 2658.044,-273.9126"/>
<text text-anchor="middle" x="2406.1874" y="-259.8" font-family="Times,serif" font-size="14.00" fill="#000000">*.pp</text>
</g>
<!-- xdsdfu -->
<g id="node28" class="node">
<title>xdsdfu</title>
<ellipse fill="#d3d3d3" stroke="#000000" cx="4142.3408" cy="-365" rx="51.9908" ry="18"/>
<text text-anchor="middle" x="4142.3408" y="-361.3" font-family="Times,serif" font-size="14.00" fill="#000000">xdsdfu.exe</text>
</g>
<!-- tiobj2bin&#45;&gt;xdsdfu -->
<g id="edge38" class="edge">
<title>tiobj2bin&#45;&gt;xdsdfu</title>
<path fill="none" stroke="#000000" d="M3643.3947,-365C3655.7347,-365 3668.6728,-365 3680.7555,-365 3680.7555,-365 3680.7555,-365 4052.8454,-365 4061.6508,-365 4070.9434,-365 4080.0761,-365"/>
<polygon fill="#000000" stroke="#000000" points="4080.2848,-368.5001 4090.2847,-365 4080.2847,-361.5001 4080.2848,-368.5001"/>
<text text-anchor="middle" x="3882.8005" y="-368.8" font-family="Times,serif" font-size="14.00" fill="#000000">*.bin</text>
</g>
<!-- hex2bin&#45;&gt;srfprog -->
<g id="edge32" class="edge">
<title>hex2bin&#45;&gt;srfprog</title>
<path fill="none" stroke="#000000" d="M3829.1558,-186.1445C3815.9644,-187.2188 3801.8645,-188 3788.7555,-188 2072.2491,-188 2072.2491,-188 2072.2491,-188 2010.6497,-188 1997.9051,-215 1936.3057,-215 1508.8178,-215 1508.8178,-215 1508.8178,-215 1490.8073,-215 1471.3206,-217.2941 1453.8729,-220.1969"/>
<polygon fill="#000000" stroke="#000000" points="1453.1016,-216.7789 1443.862,-221.9636 1454.3182,-223.6723 1453.1016,-216.7789"/>
<text text-anchor="middle" x="2834.474" y="-191.8" font-family="Times,serif" font-size="14.00" fill="#000000">*.bin</text>
</g>
</g>
</svg>
